<?xml version="1.0" encoding="utf-8" ?>
<!DOCTYPE svg PUBLIC "-//W3C//DTD SVG 1.1//EN" "http://www.w3.org/Graphics/SVG/1.1/DTD/svg11.dtd">
<svg height="372" version="1.1" width="627" xmlns="http://www.w3.org/2000/svg">
<rect fill="none" height="344" stroke="#000000" stroke-width="1" width="528" x="85" y="14"/>
<line fill="#000000" stroke="#000000" stroke-width="1" x1="252" x2="252" y1="14" y2="358"/>
<line fill="#000000" stroke="#000000" stroke-width="1" x1="85" x2="85" y1="14" y2="358"/>
<line fill="#000000" stroke="#000000" stroke-width="1" x1="85" x2="252" y1="14" y2="14"/>
<line fill="#000000" stroke="#000000" stroke-width="1" x1="85" x2="252" y1="358" y2="358"/>
<text font-family="Dialog" font-size="12" x="111" y="27">
MemoryDispatcher</text>
<line fill="#000000" stroke="#000000" stroke-width="1" x1="85" x2="252" y1="39" y2="39"/>
<line fill="#000000" stroke="#000000" stroke-width="1" x1="444" x2="444" y1="14" y2="358"/>
<line fill="#000000" stroke="#000000" stroke-width="1" x1="253" x2="444" y1="14" y2="14"/>
<line fill="#000000" stroke="#000000" stroke-width="1" x1="253" x2="444" y1="358" y2="358"/>
<text font-family="Dialog" font-size="12" x="306" y="27">
MemoryPager</text>
<line fill="#000000" stroke="#000000" stroke-width="1" x1="253" x2="444" y1="39" y2="39"/>
<line fill="#000000" stroke="#000000" stroke-width="1" x1="612" x2="612" y1="14" y2="358"/>
<line fill="#000000" stroke="#000000" stroke-width="1" x1="445" x2="612" y1="14" y2="14"/>
<line fill="#000000" stroke="#000000" stroke-width="1" x1="445" x2="612" y1="358" y2="358"/>
<text font-family="Dialog" font-size="12" x="461" y="27">
ExternalMemoryPager</text>
<line fill="#000000" stroke="#000000" stroke-width="1" x1="445" x2="612" y1="39" y2="39"/>
<ellipse cx="64" cy="68" fill="#000000" rx="8.0" ry="8.0" stroke="#000000" stroke-width="1"/>
<polygon fill="#ffffff" points="173,52 189,68 173,84 157,68" stroke="#ffffff" stroke-width="1"/>
<polygon fill="none" points="173,52 189,68 173,84 157,68" stroke="#000000" stroke-width="1"/>
<polyline fill="none" points="72,68 157,68" stroke="#000000" stroke-width="1"/>
<line fill="#000000" stroke="#000000" stroke-width="1" x1="145" x2="157" y1="75" y2="68"/>
<line fill="#000000" stroke="#000000" stroke-width="1" x1="145" x2="157" y1="61" y2="68"/>
<polygon fill="#ffffff" points="173,302 189,318 173,334 157,318" stroke="#ffffff" stroke-width="1"/>
<polygon fill="none" points="173,302 189,318 173,334 157,318" stroke="#000000" stroke-width="1"/>
<polyline fill="none" points="173,84 173,302" stroke="#000000" stroke-width="1"/>
<line fill="#000000" stroke="#000000" stroke-width="1" x1="166" x2="173" y1="290" y2="302"/>
<line fill="#000000" stroke="#000000" stroke-width="1" x1="180" x2="173" y1="290" y2="302"/>
<text font-family="Dialog" font-size="12" x="15" y="192">
недостаточно свободной памяти</text>
<ellipse cx="65" cy="318" fill="#000000" rx="12.0" ry="12.0" stroke="#000000" stroke-width="1"/>
<ellipse cx="65" cy="318" fill="#ffffff" rx="11.0" ry="11.0" stroke="#ffffff" stroke-width="1"/>
<ellipse cx="64" cy="317" fill="#000000" rx="7.5" ry="7.5" stroke="#000000" stroke-width="1"/>
<polyline fill="none" points="157,318 77,318" stroke="#000000" stroke-width="1"/>
<line fill="#000000" stroke="#000000" stroke-width="1" x1="89" x2="77" y1="311" y2="318"/>
<line fill="#000000" stroke="#000000" stroke-width="1" x1="89" x2="77" y1="325" y2="318"/>
<rect fill="#00ff" height="42" rx="44" ry="44" stroke="#00ff" stroke-width="1" width="157" x="262" y="47"/>
<rect fill="#ffffff" height="44" rx="44" ry="44" stroke="#000000" stroke-width="1" width="159" x="261" y="46"/>
<rect fill="#ffffff" height="42" rx="44" ry="44" stroke="#ffffff" stroke-width="1" width="157" x="262" y="47"/>
<text font-family="Dialog" font-size="12" x="273" y="65">
Выделить страницы</text>
<polygon fill="#ffffff" points="317,222 333,238 317,254 301,238" stroke="#ffffff" stroke-width="1"/>
<polygon fill="none" points="317,222 333,238 317,254 301,238" stroke="#000000" stroke-width="1"/>
<polyline fill="none" points="317,88 317,134" stroke="#000000" stroke-width="1"/>
<line fill="#000000" stroke="#000000" stroke-width="1" x1="310" x2="317" y1="122" y2="134"/>
<line fill="#000000" stroke="#000000" stroke-width="1" x1="324" x2="317" y1="122" y2="134"/>
<polygon fill="#ffffff" points="317,302 333,318 317,334 301,318" stroke="#ffffff" stroke-width="1"/>
<polygon fill="none" points="317,302 333,318 317,334 301,318" stroke="#000000" stroke-width="1"/>
<polyline fill="none" points="333,238 437,294" stroke="#000000" stroke-width="1"/>
<line fill="#000000" stroke="#000000" stroke-width="1" x1="423" x2="437" y1="294" y2="294"/>
<line fill="#000000" stroke="#000000" stroke-width="1" x1="429" x2="437" y1="282" y2="294"/>
<text font-family="Dialog" font-size="12" x="349" y="265">
 [выделенно недостаточно]</text>
<rect fill="#00ff" height="33" rx="35" ry="35" stroke="#00ff" stroke-width="1" width="157" x="438" y="295"/>
<rect fill="#ffffff" height="35" rx="35" ry="35" stroke="#000000" stroke-width="1" width="159" x="437" y="294"/>
<rect fill="#ffffff" height="33" rx="35" ry="35" stroke="#ffffff" stroke-width="1" width="157" x="438" y="295"/>
<text font-family="Dialog" font-size="12" x="449" y="313">
Выделить страницы</text>
<polyline fill="none" points="438,318 333,318" stroke="#000000" stroke-width="1"/>
<line fill="#000000" stroke="#000000" stroke-width="1" x1="345" x2="333" y1="311" y2="318"/>
<line fill="#000000" stroke="#000000" stroke-width="1" x1="345" x2="333" y1="325" y2="318"/>
<polyline fill="none" points="317,254 317,302" stroke="#000000" stroke-width="1"/>
<line fill="#000000" stroke="#000000" stroke-width="1" x1="310" x2="317" y1="290" y2="302"/>
<line fill="#000000" stroke="#000000" stroke-width="1" x1="324" x2="317" y1="290" y2="302"/>
<polyline fill="none" points="301,318 189,318" stroke="#000000" stroke-width="1"/>
<line fill="#000000" stroke="#000000" stroke-width="1" x1="201" x2="189" y1="311" y2="318"/>
<line fill="#000000" stroke="#000000" stroke-width="1" x1="201" x2="189" y1="325" y2="318"/>
<polyline fill="none" points="189,68 262,68" stroke="#000000" stroke-width="1"/>
<line fill="#000000" stroke="#000000" stroke-width="1" x1="250" x2="262" y1="75" y2="68"/>
<line fill="#000000" stroke="#000000" stroke-width="1" x1="250" x2="262" y1="61" y2="68"/>
<rect fill="#00ff" height="48" rx="50" ry="50" stroke="#00ff" stroke-width="1" width="181" x="254" y="135"/>
<rect fill="#ffffff" height="50" rx="50" ry="50" stroke="#000000" stroke-width="1" width="183" x="253" y="134"/>
<rect fill="#ffffff" height="48" rx="50" ry="50" stroke="#ffffff" stroke-width="1" width="181" x="254" y="135"/>
<text font-family="Dialog" font-size="12" x="269" y="153">
Добавить страницы в </text>
<text font-family="Dialog" font-size="12" x="265" y="168">
очередь на вытеснение</text>
<polyline fill="none" points="317,182 317,222" stroke="#000000" stroke-width="1"/>
<line fill="#000000" stroke="#000000" stroke-width="1" x1="310" x2="317" y1="210" y2="222"/>
<line fill="#000000" stroke="#000000" stroke-width="1" x1="324" x2="317" y1="210" y2="222"/>
</svg>
